HIERARCHY
ROOT Root
{
	OFFSET 0.00000 0.00000 0.00000
	CHANNELS 6 Xposition Yposition Zposition Zrotation Xrotation Yrotation
	JOINT Hips
	{
		OFFSET 0 0 0	
		CHANNELS 3 Zrotation Xrotation Yrotation
		JOINT Spine
		{
			OFFSET 0 4 0	
			CHANNELS 3 Zrotation Xrotation Yrotation
			JOINT Spine1
			{
				OFFSET 0 19.4 0	
				CHANNELS 3 Zrotation Xrotation Yrotation
				JOINT Spine2
				{
					OFFSET 0 16.6 0	
					CHANNELS 3 Zrotation Xrotation Yrotation
					JOINT LeftCollar
					{
						OFFSET 0 10 0	
						CHANNELS 3 Zrotation Xrotation Yrotation
						JOINT LeftArm
						{
							OFFSET 15.6 -2 3	
							CHANNELS 3 Zrotation Xrotation Yrotation
							JOINT LeftForeArm
							{
								OFFSET 3.5 -27 -1	
								CHANNELS 3 Zrotation Xrotation Yrotation
								JOINT LeftHand
								{
									OFFSET 1 -27 1	
									CHANNELS 3 Zrotation Xrotation Yrotation
									End Site
									{
										OFFSET 0 -15 0
									}
								}
							}
						}
					}
					JOINT RightCollar
					{
						OFFSET 0 10 0	
						CHANNELS 3 Zrotation Xrotation Yrotation
						JOINT RightArm
						{
							OFFSET -15.6 -2 3	
							CHANNELS 3 Zrotation Xrotation Yrotation
							JOINT RightForeArm
							{
								OFFSET -3.5 -27 -1	
								CHANNELS 3 Zrotation Xrotation Yrotation
								JOINT RightHand
								{
									OFFSET -1 -27 1	
									CHANNELS 3 Zrotation Xrotation Yrotation
									End Site
									{
										OFFSET 0 -15 0
									}
								}
							}
						}
					}
					JOINT Neck
					{
						OFFSET 0 10 0	
						CHANNELS 3 Zrotation Xrotation Yrotation
						JOINT Head
						{
							OFFSET 0 12.7 3	
							CHANNELS 3 Zrotation Xrotation Yrotation
							End Site
							{
								OFFSET 0 12.7 3
							}
						}
					}
				}
			}
		}
	}
	JOINT LeftHip
	{
		OFFSET 0 0 0	
		CHANNELS 3 Zrotation Xrotation Yrotation
		JOINT LeftUpLeg
		{
			OFFSET 8.8 -6 0	
			CHANNELS 3 Zrotation Xrotation Yrotation
			JOINT LeftLeg
			{
				OFFSET 0 -39 2	
				CHANNELS 3 Zrotation Xrotation Yrotation
				JOINT LeftFoot
				{
					OFFSET 0 -43 -2	
					CHANNELS 3 Zrotation Xrotation Yrotation
					JOINT LeftFootFront
					{
						OFFSET 0 -7 8.5	
						CHANNELS 3 Zrotation Xrotation Yrotation
						End Site
						{
							OFFSET 0 -0.5 9
						}
					}
				}
				JOINT LeftHeel
				{
					OFFSET 0 -43 -2	
					CHANNELS 3 Zrotation Xrotation Yrotation
					End Site
					{
						OFFSET 0 -7.5 -5
					}
				}
			}
		}
	}
	JOINT RightHip
	{
		OFFSET 0 0 0	
		CHANNELS 3 Zrotation Xrotation Yrotation
		JOINT RightUpLeg
		{
			OFFSET -8.8 -6 0	
			CHANNELS 3 Zrotation Xrotation Yrotation
			JOINT RightLeg
			{
				OFFSET 0 -39 2	
				CHANNELS 3 Zrotation Xrotation Yrotation
				JOINT RightFoot
				{
					OFFSET 0 -43 -2	
					CHANNELS 3 Zrotation Xrotation Yrotation
					JOINT RightFootFront
					{
						OFFSET 0 -7 8.5	
						CHANNELS 3 Zrotation Xrotation Yrotation
						End Site
						{
							OFFSET 0 -0.5 9
						}
					}
				}
				JOINT RightHeel
				{
					OFFSET 0 -43 -2	
					CHANNELS 3 Zrotation Xrotation Yrotation
					End Site
					{
						OFFSET 0 -7.5 -5
					}
				}
			}
		}
	}
}
MOTION
Frames: 15
Frame Time: 0.05
0 95.5 0 -0 0 -0 -0 0 -0 -0 0 -0 7.2115 -3.7388 58.021 -0 0 -0 -0 0 -0 27.764 -13.633 21.818 -128.93 -39.218 -44.094 -0 0 -0 -0 0 -0 -9.2366 -41.555 25.395 120.04 -32.408 18.079 -0 0 -0 -1.542 7.1799 23.832 -1.542 7.1799 23.832 -0 0 -0 -0 0 -0 -0 0 -0 -0 0 -0 -0 0 -0 -0 0 -0 -0 0 -0 -0 0 -0 -0 0 -0 -0 0 -0 -0 0 -0 -0 0 -0 
0 95.5 0 -0 0 -0 -0 0 -0 -0 0 -0 7.2802 -3.761 58.104 -0 0 -0 -0 0 -0 27.926 -13.918 21.896 -128.91 -39.206 -44.169 -0 0 -0 -0 0 -0 -9.2769 -41.556 25.377 120.17 -32.382 18.602 -0 0 -0 -1.5631 7.2806 23.812 -1.5631 7.2806 23.812 -0 0 -0 -0 0 -0 -0 0 -0 -0 0 -0 -0 0 -0 -0 0 -0 -0 0 -0 -0 0 -0 -0 0 -0 -0 0 -0 -0 0 -0 -0 0 -0 
0 95.5 0 -0 0 -0 -0 0 -0 -0 0 -0 7.4152 -3.8061 58.146 -0 0 -0 -0 0 -0 28.08 -14.139 21.966 -128.9 -39.212 -44.309 -0 0 -0 -0 0 -0 -9.3307 -41.578 25.438 120.29 -32.426 19.399 -0 0 -0 -1.5928 7.4233 23.817 -1.5928 7.4233 23.817 -0 0 -0 -0 0 -0 -0 0 -0 -0 0 -0 -0 0 -0 -0 0 -0 -0 0 -0 -0 0 -0 -0 0 -0 -0 0 -0 -0 0 -0 -0 0 -0 
0 95.5 0 -0 0 -0 -0 0 -0 -0 0 -0 7.5466 -3.8416 58.167 -0 0 -0 -0 0 -0 28.244 -14.381 22.015 -128.94 -39.26 -44.59 -0 0 -0 -0 0 -0 -9.3415 -41.686 25.536 120.46 -32.426 19.867 -0 0 -0 -1.6099 7.5462 23.826 -1.6099 7.5462 23.826 -0 0 -0 -0 0 -0 -0 0 -0 -0 0 -0 -0 0 -0 -0 0 -0 -0 0 -0 -0 0 -0 -0 0 -0 -0 0 -0 -0 0 -0 -0 0 -0 
0 95.5 0 -0 0 -0 -0 0 -0 -0 0 -0 7.6819 -3.8796 58.18 -0 0 -0 -0 0 -0 28.447 -14.619 22.102 -128.98 -39.284 -44.774 -0 0 -0 -0 0 -0 -9.2986 -41.837 25.653 120.61 -32.467 20.382 -0 0 -0 -1.5802 7.6185 23.82 -1.5802 7.6185 23.82 -0 0 -0 -0 0 -0 -0 0 -0 -0 0 -0 -0 0 -0 -0 0 -0 -0 0 -0 -0 0 -0 -0 0 -0 -0 0 -0 -0 0 -0 -0 0 -0 
0 95.5 0 -0 0 -0 -0 0 -0 -0 0 -0 7.8196 -3.8889 58.176 -0 0 -0 -0 0 -0 28.634 -14.865 22.174 -129 -39.311 -44.943 -0 0 -0 -0 0 -0 -9.2555 -42.004 25.802 120.73 -32.573 21.238 -0 0 -0 -1.5944 7.6773 23.821 -1.5944 7.6773 23.821 -0 0 -0 -0 0 -0 -0 0 -0 -0 0 -0 -0 0 -0 -0 0 -0 -0 0 -0 -0 0 -0 -0 0 -0 -0 0 -0 -0 0 -0 -0 0 -0 
0 95.5 0 -0 0 -0 -0 0 -0 -0 0 -0 7.9151 -3.8696 58.169 -0 0 -0 -0 0 -0 28.802 -15.118 22.197 -129.07 -39.33 -45.205 -0 0 -0 -0 0 -0 -9.1959 -42.199 25.907 120.89 -32.583 21.631 -0 0 -0 -1.6089 7.6883 23.84 -1.6089 7.6883 23.84 -0 0 -0 -0 0 -0 -0 0 -0 -0 0 -0 -0 0 -0 -0 0 -0 -0 0 -0 -0 0 -0 -0 0 -0 -0 0 -0 -0 0 -0 -0 0 -0 
0 95.5 0 -0 0 -0 -0 0 -0 -0 0 -0 8.0091 -3.8361 58.158 -0 0 -0 -0 0 -0 28.916 -15.341 22.239 -129.07 -39.334 -45.299 -0 0 -0 -0 0 -0 -9.1146 -42.319 26.016 120.98 -32.603 21.946 -0 0 -0 -1.6021 7.6895 23.886 -1.6021 7.6895 23.886 -0 0 -0 -0 0 -0 -0 0 -0 -0 0 -0 -0 0 -0 -0 0 -0 -0 0 -0 -0 0 -0 -0 0 -0 -0 0 -0 -0 0 -0 -0 0 -0 
0 95.5 0 -0 0 -0 -0 0 -0 -0 0 -0 8.1417 -3.829 58.125 -0 0 -0 -0 0 -0 28.996 -15.49 22.25 -129.1 -39.34 -45.449 -0 0 -0 -0 0 -0 -9.0242 -42.307 26.123 121.09 -32.628 22.548 -0 0 -0 -1.6335 7.772 23.921 -1.6335 7.772 23.921 -0 0 -0 -0 0 -0 -0 0 -0 -0 0 -0 -0 0 -0 -0 0 -0 -0 0 -0 -0 0 -0 -0 0 -0 -0 0 -0 -0 0 -0 -0 0 -0 
0 95.5 0 -0 0 -0 -0 0 -0 -0 0 -0 8.3545 -3.8302 58.08 -0 0 -0 -0 0 -0 28.954 -15.507 22.202 -129.14 -39.316 -45.651 -0 0 -0 -0 0 -0 -8.9529 -42.167 26.276 121.29 -32.572 23.513 -0 0 -0 -1.6677 7.9193 23.956 -1.6677 7.9193 23.956 -0 0 -0 -0 0 -0 -0 0 -0 -0 0 -0 -0 0 -0 -0 0 -0 -0 0 -0 -0 0 -0 -0 0 -0 -0 0 -0 -0 0 -0 -0 0 -0 
0 95.5 0 -0 0 -0 -0 0 -0 -0 0 -0 8.4183 -3.8364 58.033 -0 0 -0 -0 0 -0 28.994 -15.61 22.172 -129.14 -39.317 -45.743 -0 0 -0 -0 0 -0 -8.866 -42.143 26.382 121.33 -32.582 23.803 -0 0 -0 -1.6768 7.996 23.979 -1.6768 7.996 23.979 -0 0 -0 -0 0 -0 -0 0 -0 -0 0 -0 -0 0 -0 -0 0 -0 -0 0 -0 -0 0 -0 -0 0 -0 -0 0 -0 -0 0 -0 -0 0 -0 
0 95.5 0 -0 0 -0 -0 0 -0 -0 0 -0 8.4873 -3.8577 57.973 -0 0 -0 -0 0 -0 29.009 -15.679 22.125 -129.17 -39.309 -45.876 -0 0 -0 -0 0 -0 -8.7773 -42.099 26.508 121.37 -32.589 24.098 -0 0 -0 -1.6447 8.0392 23.983 -1.6447 8.0392 23.983 -0 0 -0 -0 0 -0 -0 0 -0 -0 0 -0 -0 0 -0 -0 0 -0 -0 0 -0 -0 0 -0 -0 0 -0 -0 0 -0 -0 0 -0 -0 0 -0 
0 95.5 0 -0 0 -0 -0 0 -0 -0 0 -0 8.5355 -3.877 57.924 -0 0 -0 -0 0 -0 29.006 -15.771 22.062 -129.21 -39.274 -46.017 -0 0 -0 -0 0 -0 -8.6888 -42.092 26.564 121.39 -32.545 24.646 -0 0 -0 -1.612 8.0684 23.993 -1.612 8.0684 23.993 -0 0 -0 -0 0 -0 -0 0 -0 -0 0 -0 -0 0 -0 -0 0 -0 -0 0 -0 -0 0 -0 -0 0 -0 -0 0 -0 -0 0 -0 -0 0 -0 
0 95.5 0 -0 0 -0 -0 0 -0 -0 0 -0 8.5528 -3.8643 57.868 -0 0 -0 -0 0 -0 28.994 -15.886 21.983 -129.27 -39.283 -46.171 -0 0 -0 -0 0 -0 -8.6672 -42.141 26.631 121.44 -32.551 25.297 -0 0 -0 -1.5837 8.101 23.997 -1.5837 8.101 23.997 -0 0 -0 -0 0 -0 -0 0 -0 -0 0 -0 -0 0 -0 -0 0 -0 -0 0 -0 -0 0 -0 -0 0 -0 -0 0 -0 -0 0 -0 -0 0 -0 
0 95.5 0 -0 0 -0 -0 0 -0 -0 0 -0 8.5465 -3.8213 57.833 -0 0 -0 -0 0 -0 28.939 -16.029 21.858 -129.35 -39.302 -46.385 -0 0 -0 -0 0 -0 -8.7015 -42.248 26.647 121.52 -32.58 25.672 -0 0 -0 -1.5699 8.1323 24.005 -1.5699 8.1323 24.005 -0 0 -0 -0 0 -0 -0 0 -0 -0 0 -0 -0 0 -0 -0 0 -0 -0 0 -0 -0 0 -0 -0 0 -0 -0 0 -0 -0 0 -0 -0 0 -0 
